# xmcd CD database file
#
# Track frame offsets:
#	150
#	14324
#	30865
#	53579
#	64346
#	80737
#	98652
#	114343
#	133370
#	149913
#	168008
#
# Disc length: 2497 seconds
#
# Revision: 0
# Processed by: cddbd v1.5.2PL0 Copyright (c) Steve Scherf et al.
# Submitted via: CDex 1.70beta2
#
DISCID=9009bf0b
DTITLE=Sarah Ayers Band - Cold, Hard, Dirty Truth
DYEAR=2004
DGENRE=Blues
TTITLE0=Body Says Yes
TTITLE1=Try To Understand
TTITLE2=Sarah's Blues
TTITLE3=Thinking Of You
TTITLE4=Feel Like Breaking Up Somebodys Home
TTITLE5=Guilty
TTITLE6=Jump For Joy
TTITLE7=Little Miss Information
TTITLE8=Want Me Too
TTITLE9=Digging In The Trash
TTITLE10=Cassidy
EXTD=YEAR: 2004
EXTT0=
EXTT1=
EXTT2=
EXTT3=
EXTT4=
EXTT5=
EXTT6=
EXTT7=
EXTT8=
EXTT9=
EXTT10=
PLAYORDER=
